<svg width="20" height="16" viewBox="0 0 20 16" fill="none" xmlns="http://www.w3.org/2000/svg">
<path d="M4.65612 8.064C5.61612 8.16 6.40812 8.568 7.03212 9.288C7.65612 9.96 7.96812 10.824 7.96812 11.88C7.96812 13.128 7.58412 14.112 6.81612 14.832C6.09612 15.552 5.18412 15.912 4.08012 15.912C2.88012 15.912 1.92012 15.504 1.20012 14.688C0.480118 13.872 0.120117 12.672 0.120117 11.088C0.120117 9.12 0.504117 7.248 1.27212 5.472C2.08812 3.696 3.16812 2.136 4.51212 0.791998C5.04012 0.263999 5.61612 0 6.24012 0C6.76812 0 7.20012 0.168 7.53612 0.504002C7.87212 0.792001 8.04012 1.176 8.04012 1.656C8.04012 2.184 7.80012 2.688 7.32012 3.168C5.92812 4.56 5.04012 6.192 4.65612 8.064ZM16.6081 8.064C17.5681 8.16 18.3601 8.568 18.9841 9.288C19.6081 9.96 19.9201 10.824 19.9201 11.88C19.9201 13.128 19.5361 14.112 18.7681 14.832C18.0481 15.552 17.1361 15.912 16.0321 15.912C14.8321 15.912 13.8721 15.504 13.1521 14.688C12.4321 13.872 12.0721 12.672 12.0721 11.088C12.0721 9.12 12.4561 7.248 13.2241 5.472C14.0401 3.696 15.1201 2.136 16.4641 0.791998C16.9921 0.263999 17.5681 0 18.1921 0C18.7201 0 19.1521 0.168 19.4881 0.504002C19.8241 0.792001 19.9921 1.176 19.9921 1.656C19.9921 2.184 19.7521 2.688 19.2721 3.168C17.8801 4.56 16.9921 6.192 16.6081 8.064Z" fill="#1593FF"/>
</svg>
